<mxfile host="app.diagrams.net" agent="Mozilla/5.0 (Windows NT 10.0; Win64; x64) AppleWebKit/537.36 (KHTML, like Gecko) Chrome/127.0.0.0 Safari/537.36" version="24.7.7">
  <diagram name="Page-1" id="oEoNsn6Kjmoo2HOGWea6">
    <mxGraphModel dx="2168" dy="1771" grid="1" gridSize="10" guides="1" tooltips="1" connect="1" arrows="1" fold="1" page="1" pageScale="1" pageWidth="850" pageHeight="1100" math="0" shadow="0">
      <root>
        <mxCell id="0" />
        <mxCell id="1" parent="0" />
        <mxCell id="f2ONLm10o4cYJ2UBlt0J-124" value="&lt;h1 style=&quot;margin-top: 0px;&quot;&gt;&lt;div style=&quot;font-family: Consolas, &amp;quot;Courier New&amp;quot;, monospace; font-weight: normal; font-size: 14px; line-height: 19px; white-space: pre;&quot;&gt;Una aplicación se dedica a listar precios de hoteles publicados en diferentes sitios. &lt;/div&gt;&lt;div style=&quot;font-family: Consolas, &amp;quot;Courier New&amp;quot;, monospace; font-weight: normal; font-size: 14px; line-height: 19px; white-space: pre;&quot;&gt;&lt;br&gt;&lt;/div&gt;&lt;div style=&quot;font-family: Consolas, &amp;quot;Courier New&amp;quot;, monospace; font-weight: normal; font-size: 14px; line-height: 19px; white-space: pre;&quot;&gt;Los usuarios de la aplicación pueden incluso hallar distintos precios de una misma habitación de un mismo hotel, según el sitio que lo publica.&lt;/div&gt;&lt;div style=&quot;font-family: Consolas, &amp;quot;Courier New&amp;quot;, monospace; font-weight: normal; font-size: 14px; line-height: 19px; white-space: pre;&quot;&gt;&lt;br&gt;&lt;/div&gt;&lt;div style=&quot;font-family: Consolas, &amp;quot;Courier New&amp;quot;, monospace; font-weight: normal; font-size: 14px; line-height: 19px; white-space: pre;&quot;&gt;Cuando un usuario busca una habitación, especificando un rango de fechas y cantidad de personas, la aplicación lista los resultados.&lt;/div&gt;&lt;div style=&quot;font-family: Consolas, &amp;quot;Courier New&amp;quot;, monospace; font-weight: normal; font-size: 14px; line-height: 19px; white-space: pre;&quot;&gt;&lt;br&gt;&lt;/div&gt;&lt;div style=&quot;font-family: Consolas, &amp;quot;Courier New&amp;quot;, monospace; font-weight: normal; font-size: 14px; line-height: 19px; white-space: pre;&quot;&gt;Cada resultado de búsqueda indica una habitación de un hotel y el sitio que la pública, junto con el precio por noche. &lt;/div&gt;&lt;div style=&quot;font-family: Consolas, &amp;quot;Courier New&amp;quot;, monospace; font-weight: normal; font-size: 14px; line-height: 19px; white-space: pre;&quot;&gt;&lt;br&gt;&lt;/div&gt;&lt;div style=&quot;font-family: Consolas, &amp;quot;Courier New&amp;quot;, monospace; font-weight: normal; font-size: 14px; line-height: 19px; white-space: pre;&quot;&gt;De los hoteles se conoce el nombre, estrellas y donde se encuentran ubicados. &lt;/div&gt;&lt;div style=&quot;font-family: Consolas, &amp;quot;Courier New&amp;quot;, monospace; font-weight: normal; font-size: 14px; line-height: 19px; white-space: pre;&quot;&gt;&lt;br&gt;&lt;/div&gt;&lt;div style=&quot;font-family: Consolas, &amp;quot;Courier New&amp;quot;, monospace; font-weight: normal; font-size: 14px; line-height: 19px; white-space: pre;&quot;&gt;Las habitaciones de un hotel pueden ser dobles o triples, aunque a veces se publican habitaciones de otras capacidades.&lt;/div&gt;&lt;div style=&quot;font-family: Consolas, &amp;quot;Courier New&amp;quot;, monospace; font-weight: normal; font-size: 14px; line-height: 19px; white-space: pre;&quot;&gt; &lt;/div&gt;&lt;div style=&quot;font-family: Consolas, &amp;quot;Courier New&amp;quot;, monospace; font-weight: normal; font-size: 14px; line-height: 19px; white-space: pre;&quot;&gt;Además, de cada habitación se conocen detalles y categoría, que no están estandarizadas y cada hotel define por su cuenta.&lt;/div&gt;&lt;div style=&quot;font-family: Consolas, &amp;quot;Courier New&amp;quot;, monospace; font-weight: normal; font-size: 14px; line-height: 19px; white-space: pre;&quot;&gt;&lt;br&gt;&lt;/div&gt;&lt;div style=&quot;font-family: Consolas, &amp;quot;Courier New&amp;quot;, monospace; font-weight: normal; font-size: 14px; line-height: 19px; white-space: pre;&quot;&gt;El precio por noche de una habitación depende de cada sitio que lo publica, es decir, para una misma habitación de un mismo hotel, pueden haber varios sitios que publican el precio por noche. `&lt;/div&gt;&lt;div style=&quot;font-family: Consolas, &amp;quot;Courier New&amp;quot;, monospace; font-weight: normal; font-size: 14px; line-height: 19px; white-space: pre;&quot;&gt;&lt;br&gt;&lt;/div&gt;&lt;div style=&quot;font-family: Consolas, &amp;quot;Courier New&amp;quot;, monospace; font-weight: normal; font-size: 14px; line-height: 19px; white-space: pre;&quot;&gt;Este precio también varía con el tiempo, y es necesario llevar registro de los distintos precios en diferentes rangos de fechas, dado que las posteriores búsquedas se realizan para fechas distintas. &lt;/div&gt;&lt;div style=&quot;font-family: Consolas, &amp;quot;Courier New&amp;quot;, monospace; font-weight: normal; font-size: 14px; line-height: 19px; white-space: pre;&quot;&gt;&lt;br&gt;&lt;/div&gt;&lt;div style=&quot;font-family: Consolas, &amp;quot;Courier New&amp;quot;, monospace; font-weight: normal; font-size: 14px; line-height: 19px; white-space: pre;&quot;&gt;De los usuarios se conoce el email, nombre y contraseña.&lt;/div&gt;&lt;/h1&gt;" style="text;html=1;whiteSpace=wrap;overflow=hidden;rounded=0;fillColor=none;" vertex="1" parent="1">
          <mxGeometry x="-690" y="-20" width="1130" height="370" as="geometry" />
        </mxCell>
        <mxCell id="f2ONLm10o4cYJ2UBlt0J-125" value="Usuar io" style="rounded=0;whiteSpace=wrap;html=1;" vertex="1" parent="1">
          <mxGeometry x="-340" y="550" width="120" height="60" as="geometry" />
        </mxCell>
        <mxCell id="f2ONLm10o4cYJ2UBlt0J-126" value="&lt;font style=&quot;font-size: 9px;&quot;&gt;Busca&lt;/font&gt;" style="rhombus;whiteSpace=wrap;html=1;" vertex="1" parent="1">
          <mxGeometry x="-160" y="555" width="50" height="50" as="geometry" />
        </mxCell>
        <mxCell id="f2ONLm10o4cYJ2UBlt0J-127" value="Habitacion" style="rounded=0;whiteSpace=wrap;html=1;" vertex="1" parent="1">
          <mxGeometry x="-40" y="550" width="120" height="60" as="geometry" />
        </mxCell>
        <mxCell id="f2ONLm10o4cYJ2UBlt0J-128" value="" style="endArrow=none;html=1;rounded=0;exitX=1;exitY=0.5;exitDx=0;exitDy=0;entryX=0;entryY=0.5;entryDx=0;entryDy=0;" edge="1" parent="1" source="f2ONLm10o4cYJ2UBlt0J-125" target="f2ONLm10o4cYJ2UBlt0J-126">
          <mxGeometry width="50" height="50" relative="1" as="geometry">
            <mxPoint x="-190" y="560" as="sourcePoint" />
            <mxPoint x="-140" y="510" as="targetPoint" />
          </mxGeometry>
        </mxCell>
        <mxCell id="f2ONLm10o4cYJ2UBlt0J-129" value="" style="endArrow=none;html=1;rounded=0;exitX=1;exitY=0.5;exitDx=0;exitDy=0;" edge="1" parent="1" source="f2ONLm10o4cYJ2UBlt0J-126" target="f2ONLm10o4cYJ2UBlt0J-127">
          <mxGeometry width="50" height="50" relative="1" as="geometry">
            <mxPoint x="-60" y="540" as="sourcePoint" />
            <mxPoint x="-10" y="490" as="targetPoint" />
          </mxGeometry>
        </mxCell>
      </root>
    </mxGraphModel>
  </diagram>
</mxfile>
